<svg width="640" height="480" xmlns="http://www.w3.org/2000/svg">
 <g>
  <title>Layer 1</title>
  <path fill="none" stroke-width="null" stroke-dasharray="null" stroke-linejoin="null" stroke-linecap="null" id="svg_4" d="m501.33336,333.33161c-5.45837,0 -7.35421,0 -9.7363,0c-1.39982,0 -6.5613,0 -8.63022,0c-2.2195,0 -4.55538,0 -6.97312,0c-2.46533,0 -4.94388,0 -7.40131,0c-2.40185,0 -6.90174,0.00517 -8.94162,-0.00162c-1.91035,-0.00635 -3.72029,-0.02142 -5.45877,-0.10163c-1.69638,-0.07829 -3.37961,-0.21493 -5.07825,-0.45009c-1.74413,-0.24152 -5.48313,-1.03224 -7.5268,-1.5909c-2.15328,-0.58865 -4.39036,-1.29104 -6.68769,-2.07645c-2.33556,-0.79855 -4.68378,-1.66964 -7.02079,-2.59936c-2.30386,-0.91643 -6.71217,-2.84132 -8.77378,-3.82703c-1.9625,-0.93829 -3.82869,-1.89195 -5.60548,-2.80262c-1.69239,-0.86739 -3.30178,-1.7915 -6.31463,-3.14946c-2.75261,-1.24067 -5.3011,-1.90288 -7.67484,-2.62019c-2.2495,-0.67979 -3.37256,-0.60578 -6.53312,-3.36897c-2.13985,-1.87083 -4.19728,-5.03757 -6.24768,-7.89943c-1.98092,-2.76481 -4.77544,-6.38208 -7.39998,-7.53811c-2.44976,-1.07907 -4.85226,-0.69707 -7.20701,-0.69707c-2.21208,0 -4.69281,0 -6.89521,0c-2.75604,0 -4.6549,0 -6.7441,0c-2.7133,0 -5.09366,0.06411 -7.79155,0c-2.17078,-0.0517 -4.01581,-0.24107 -6.98413,-2.14425c-1.7609,-1.129 -3.60532,-2.66495 -6.31467,-5.61322c-2.46242,-2.67957 -4.42972,-6.26421 -6.77979,-8.84171c-2.60341,-2.85536 -4.7656,-2.45756 -7.41405,-2.788c-1.69094,-0.21094 -3.65642,-1.20049 -6.78681,-5.48574c-1.88071,-2.57455 -3.82333,-6.05622 -5.89886,-9.17747c-2.09686,-3.1533 -4.2051,-5.93111 -6.30757,-8.09308c-2.03577,-2.09344 -5.92733,-4.75159 -7.73473,-5.44704c-1.73812,-0.66886 -4.33382,-1.07848 -7.0053,-2.42654c-1.90648,-0.96208 -3.88063,-2.55505 -5.93055,-3.94979c-2.08702,-1.42 -5.25678,-2.92079 -7.3361,-3.65125c-2.92255,-1.02663 -4.82911,-0.71509 -7.29823,-5.96493c-2.12941,-4.52751 -4.07493,-11.01713 -5.57112,-12.22353c-2.62595,-2.11722 -4.65313,-1.83183 -7.78054,-3.25271c-2.12114,-0.9637 -4.23301,-2.53378 -6.34281,-4.29825c-2.11896,-1.77215 -5.28287,-4.76415 -7.37618,-6.6298c-2.02613,-1.80568 -3.9362,-3.64963 -6.54279,-5.20656c-2.17857,-1.30123 -4.18627,-1.5138 -7.0476,-1.61351c-2.59264,-0.09025 -4.52517,-0.07932 -6.54279,-1.10684c-3.16996,-1.61424 -5.26678,-4.24182 -7.29162,-7.1282c-1.9289,-2.74959 -3.5258,-6.90308 -6.8027,-10.0196c-1.85127,-1.76063 -4.28801,-1.10684 -6.78153,-1.10684c-1.91342,0 -3.9537,0 -7.1141,0c-2.10283,0 -4.17393,0 -6.19219,0c-2.88202,0 -5.5262,0 -7.86115,0c-2.50892,0 -4.71132,0 -6.91368,0c-2.42436,0 -4.39064,0 -7.12511,0c-2.56534,0 -4.56639,0 -6.93307,0l-2.28164,0l-2.5455,0" stroke="#ffffff"/>
  <path stroke="#005fbf" id="svg_8" d="m2.33335,1.33192c0,0 316.99999,0 316.66666,-0.33194c-0.33333,-0.33194 185.33332,27.21945 164.33333,189.54031c-21,162.32086 156,83.65001 155.66667,83.31807c-0.33333,-0.33194 0.33333,202.48614 0,202.1542c-0.33333,-0.33194 -639.66665,3.31944 -638.99998,2.9875c0.66667,-0.33194 2.33333,-477.66814 2.33333,-477.66814z" stroke-linecap="null" stroke-linejoin="null" stroke-dasharray="null" stroke-width="5" fill="#005fbf"/>
  <line id="svg_9" y2="481.33333" x2="0.33333" y1="141.33333" x1="481.33333" stroke-linecap="null" stroke-linejoin="null" stroke-dasharray="null" stroke-width="5" stroke="#005fbf" fill="none"/>
 </g>
</svg>